<svg id="visual" viewBox="0 0 960 540" width="960" height="540" xmlns="http://www.w3.org/2000/svg" xmlns:xlink="http://www.w3.org/1999/xlink" version="1.1"><g transform="translate(1052.250705543004 -58.74314965884322)"><path d="M95.7 -138.9C104.4 -125.4 78.4 -71.2 67.1 -37.9C55.8 -4.5 59.3 7.9 78.6 49.3C97.9 90.7 133 161.1 122.5 204.2C112.1 247.3 56 263.1 -10.7 277.8C-77.4 292.5 -154.8 306 -219 280.4C-283.2 254.8 -334.2 190 -295.5 136.7C-256.8 83.4 -128.4 41.7 -92.8 -18.5C-57.2 -78.7 -114.4 -157.5 -114.4 -173.8C-114.4 -190.2 -57.2 -144.1 -6.9 -134.6C43.5 -125.2 87 -152.4 95.7 -138.9" fill="#4FACF7"></path></g></svg>