<svg id="visual" viewBox="0 0 960 540" width="960" height="540" xmlns="http://www.w3.org/2000/svg" xmlns:xlink="http://www.w3.org/1999/xlink" version="1.1"><g transform="translate(916.5388086384016 5.737823450967994)"><path d="M181.4 -226.3C245.6 -203 315.4 -164.1 332 -108.8C348.7 -53.6 312.3 18 281.3 84.6C250.3 151.2 224.8 212.7 178.8 244.6C132.8 276.5 66.4 278.8 7.4 268.5C-51.5 258.3 -103.1 235.5 -143.2 201.7C-183.3 167.9 -212 123.1 -228.9 73.8C-245.8 24.4 -250.8 -29.3 -248.9 -95C-247 -160.6 -238.1 -238.1 -195.5 -268.4C-152.8 -298.7 -76.4 -281.8 -8.9 -269.6C58.6 -257.3 117.2 -249.6 181.4 -226.3" fill="#BB004B"></path></g></svg>