<svg id="visual" viewBox="0 0 960 540" width="960" height="540" xmlns="http://www.w3.org/2000/svg" xmlns:xlink="http://www.w3.org/1999/xlink" version="1.1"><path d="M0 170L14.5 174.3C29 178.7 58 187.3 87.2 186.7C116.3 186 145.7 176 174.8 172.5C204 169 233 172 262 171.8C291 171.7 320 168.3 349 168.5C378 168.7 407 172.3 436.2 178C465.3 183.7 494.7 191.3 523.8 189.2C553 187 582 175 611 171C640 167 669 171 698 175C727 179 756 183 785.2 185.8C814.3 188.7 843.7 190.3 872.8 187.7C902 185 931 178 945.5 174.5L960 171L960 0L945.5 0C931 0 902 0 872.8 0C843.7 0 814.3 0 785.2 0C756 0 727 0 698 0C669 0 640 0 611 0C582 0 553 0 523.8 0C494.7 0 465.3 0 436.2 0C407 0 378 0 349 0C320 0 291 0 262 0C233 0 204 0 174.8 0C145.7 0 116.3 0 87.2 0C58 0 29 0 14.5 0L0 0Z" fill="#c62368"></path><path d="M0 164L14.5 163.3C29 162.7 58 161.3 87.2 161.3C116.3 161.3 145.7 162.7 174.8 166.3C204 170 233 176 262 173.3C291 170.7 320 159.3 349 155.7C378 152 407 156 436.2 156.3C465.3 156.7 494.7 153.3 523.8 154.7C553 156 582 162 611 164.2C640 166.3 669 164.7 698 161C727 157.3 756 151.7 785.2 152.7C814.3 153.7 843.7 161.3 872.8 165.8C902 170.3 931 171.7 945.5 172.3L960 173L960 0L945.5 0C931 0 902 0 872.8 0C843.7 0 814.3 0 785.2 0C756 0 727 0 698 0C669 0 640 0 611 0C582 0 553 0 523.8 0C494.7 0 465.3 0 436.2 0C407 0 378 0 349 0C320 0 291 0 262 0C233 0 204 0 174.8 0C145.7 0 116.3 0 87.2 0C58 0 29 0 14.5 0L0 0Z" fill="#cf3068"></path><path d="M0 147L14.5 148.3C29 149.7 58 152.3 87.2 150C116.3 147.7 145.7 140.3 174.8 139C204 137.7 233 142.3 262 142.3C291 142.3 320 137.7 349 139.5C378 141.3 407 149.7 436.2 150C465.3 150.3 494.7 142.7 523.8 140.2C553 137.7 582 140.3 611 139.2C640 138 669 133 698 132.2C727 131.3 756 134.7 785.2 138.3C814.3 142 843.7 146 872.8 145.3C902 144.7 931 139.3 945.5 136.7L960 134L960 0L945.5 0C931 0 902 0 872.8 0C843.7 0 814.3 0 785.2 0C756 0 727 0 698 0C669 0 640 0 611 0C582 0 553 0 523.8 0C494.7 0 465.3 0 436.2 0C407 0 378 0 349 0C320 0 291 0 262 0C233 0 204 0 174.8 0C145.7 0 116.3 0 87.2 0C58 0 29 0 14.5 0L0 0Z" fill="#d73b67"></path><path d="M0 113L14.5 109.8C29 106.7 58 100.3 87.2 99.2C116.3 98 145.7 102 174.8 104.2C204 106.3 233 106.7 262 110.7C291 114.7 320 122.3 349 121.8C378 121.3 407 112.7 436.2 110C465.3 107.3 494.7 110.7 523.8 111.8C553 113 582 112 611 111.7C640 111.3 669 111.7 698 112.7C727 113.7 756 115.3 785.2 113.5C814.3 111.7 843.7 106.3 872.8 104.3C902 102.3 931 103.7 945.5 104.3L960 105L960 0L945.5 0C931 0 902 0 872.8 0C843.7 0 814.3 0 785.2 0C756 0 727 0 698 0C669 0 640 0 611 0C582 0 553 0 523.8 0C494.7 0 465.3 0 436.2 0C407 0 378 0 349 0C320 0 291 0 262 0C233 0 204 0 174.8 0C145.7 0 116.3 0 87.2 0C58 0 29 0 14.5 0L0 0Z" fill="#df4667"></path><path d="M0 78L14.5 79.8C29 81.7 58 85.3 87.2 88C116.3 90.7 145.7 92.3 174.8 92C204 91.7 233 89.3 262 89.5C291 89.7 320 92.3 349 92.2C378 92 407 89 436.2 90.5C465.3 92 494.7 98 523.8 101.7C553 105.3 582 106.7 611 106C640 105.3 669 102.7 698 101.8C727 101 756 102 785.2 101.3C814.3 100.7 843.7 98.3 872.8 94.8C902 91.3 931 86.7 945.5 84.3L960 82L960 0L945.5 0C931 0 902 0 872.8 0C843.7 0 814.3 0 785.2 0C756 0 727 0 698 0C669 0 640 0 611 0C582 0 553 0 523.8 0C494.7 0 465.3 0 436.2 0C407 0 378 0 349 0C320 0 291 0 262 0C233 0 204 0 174.8 0C145.7 0 116.3 0 87.2 0C58 0 29 0 14.5 0L0 0Z" fill="#e75167"></path><path d="M0 65L14.5 66.8C29 68.7 58 72.3 87.2 71.8C116.3 71.3 145.7 66.7 174.8 68.3C204 70 233 78 262 79.5C291 81 320 76 349 70.2C378 64.3 407 57.7 436.2 60C465.3 62.3 494.7 73.7 523.8 77.2C553 80.7 582 76.3 611 74.7C640 73 669 74 698 72.3C727 70.7 756 66.3 785.2 62.7C814.3 59 843.7 56 872.8 58.3C902 60.7 931 68.3 945.5 72.2L960 76L960 0L945.5 0C931 0 902 0 872.8 0C843.7 0 814.3 0 785.2 0C756 0 727 0 698 0C669 0 640 0 611 0C582 0 553 0 523.8 0C494.7 0 465.3 0 436.2 0C407 0 378 0 349 0C320 0 291 0 262 0C233 0 204 0 174.8 0C145.7 0 116.3 0 87.2 0C58 0 29 0 14.5 0L0 0Z" fill="#ee5c67"></path><path d="M0 29L14.5 33C29 37 58 45 87.2 45.3C116.3 45.7 145.7 38.3 174.8 38.5C204 38.7 233 46.3 262 47.8C291 49.3 320 44.7 349 45.8C378 47 407 54 436.2 53.7C465.3 53.3 494.7 45.7 523.8 45.2C553 44.7 582 51.3 611 50.3C640 49.3 669 40.7 698 40.8C727 41 756 50 785.2 53.5C814.3 57 843.7 55 872.8 50.5C902 46 931 39 945.5 35.5L960 32L960 0L945.5 0C931 0 902 0 872.8 0C843.7 0 814.3 0 785.2 0C756 0 727 0 698 0C669 0 640 0 611 0C582 0 553 0 523.8 0C494.7 0 465.3 0 436.2 0C407 0 378 0 349 0C320 0 291 0 262 0C233 0 204 0 174.8 0C145.7 0 116.3 0 87.2 0C58 0 29 0 14.5 0L0 0Z" fill="#f46767"></path><path d="M0 34L14.5 33.7C29 33.3 58 32.7 87.2 33.3C116.3 34 145.7 36 174.8 34.3C204 32.7 233 27.3 262 26.7C291 26 320 30 349 31C378 32 407 30 436.2 30C465.3 30 494.7 32 523.8 32.7C553 33.3 582 32.7 611 30.8C640 29 669 26 698 22C727 18 756 13 785.2 14.2C814.3 15.3 843.7 22.7 872.8 25.2C902 27.7 931 25.3 945.5 24.2L960 23L960 0L945.5 0C931 0 902 0 872.8 0C843.7 0 814.3 0 785.2 0C756 0 727 0 698 0C669 0 640 0 611 0C582 0 553 0 523.8 0C494.7 0 465.3 0 436.2 0C407 0 378 0 349 0C320 0 291 0 262 0C233 0 204 0 174.8 0C145.7 0 116.3 0 87.2 0C58 0 29 0 14.5 0L0 0Z" fill="#fa7268"></path></svg>