<svg id="visual" viewBox="0 0 960 540" width="960" height="540" xmlns="http://www.w3.org/2000/svg" xmlns:xlink="http://www.w3.org/1999/xlink" version="1.1"><path d="M0 368L14.5 363.7C29 359.3 58 350.7 87.2 351.3C116.3 352 145.7 362 174.8 365.5C204 369 233 366 262 366.2C291 366.3 320 369.7 349 369.5C378 369.3 407 365.7 436.2 360C465.3 354.3 494.7 346.7 523.8 348.8C553 351 582 363 611 367C640 371 669 367 698 363C727 359 756 355 785.2 352.2C814.3 349.3 843.7 347.7 872.8 350.3C902 353 931 360 945.5 363.5L960 367L960 541L945.5 541C931 541 902 541 872.8 541C843.7 541 814.3 541 785.2 541C756 541 727 541 698 541C669 541 640 541 611 541C582 541 553 541 523.8 541C494.7 541 465.3 541 436.2 541C407 541 378 541 349 541C320 541 291 541 262 541C233 541 204 541 174.8 541C145.7 541 116.3 541 87.2 541C58 541 29 541 14.5 541L0 541Z" fill="#c62368"></path><path d="M0 374L14.5 374.7C29 375.3 58 376.7 87.2 376.7C116.3 376.7 145.7 375.3 174.8 371.7C204 368 233 362 262 364.7C291 367.3 320 378.7 349 382.3C378 386 407 382 436.2 381.7C465.3 381.3 494.7 384.7 523.8 383.3C553 382 582 376 611 373.8C640 371.7 669 373.3 698 377C727 380.7 756 386.3 785.2 385.3C814.3 384.3 843.7 376.7 872.8 372.2C902 367.7 931 366.3 945.5 365.7L960 365L960 541L945.5 541C931 541 902 541 872.8 541C843.7 541 814.3 541 785.2 541C756 541 727 541 698 541C669 541 640 541 611 541C582 541 553 541 523.8 541C494.7 541 465.3 541 436.2 541C407 541 378 541 349 541C320 541 291 541 262 541C233 541 204 541 174.8 541C145.7 541 116.3 541 87.2 541C58 541 29 541 14.5 541L0 541Z" fill="#cf3068"></path><path d="M0 391L14.5 389.7C29 388.3 58 385.7 87.2 388C116.3 390.3 145.7 397.7 174.8 399C204 400.3 233 395.7 262 395.7C291 395.7 320 400.3 349 398.5C378 396.7 407 388.3 436.2 388C465.3 387.7 494.7 395.3 523.8 397.8C553 400.3 582 397.7 611 398.8C640 400 669 405 698 405.8C727 406.7 756 403.3 785.2 399.7C814.3 396 843.7 392 872.8 392.7C902 393.3 931 398.7 945.5 401.3L960 404L960 541L945.5 541C931 541 902 541 872.8 541C843.7 541 814.3 541 785.2 541C756 541 727 541 698 541C669 541 640 541 611 541C582 541 553 541 523.8 541C494.7 541 465.3 541 436.2 541C407 541 378 541 349 541C320 541 291 541 262 541C233 541 204 541 174.8 541C145.7 541 116.3 541 87.2 541C58 541 29 541 14.5 541L0 541Z" fill="#d73b67"></path><path d="M0 425L14.5 428.2C29 431.3 58 437.7 87.2 438.8C116.3 440 145.7 436 174.8 433.8C204 431.7 233 431.3 262 427.3C291 423.3 320 415.7 349 416.2C378 416.7 407 425.3 436.2 428C465.3 430.7 494.7 427.3 523.8 426.2C553 425 582 426 611 426.3C640 426.7 669 426.3 698 425.3C727 424.3 756 422.7 785.2 424.5C814.3 426.3 843.7 431.7 872.8 433.7C902 435.7 931 434.3 945.5 433.7L960 433L960 541L945.5 541C931 541 902 541 872.8 541C843.7 541 814.3 541 785.2 541C756 541 727 541 698 541C669 541 640 541 611 541C582 541 553 541 523.8 541C494.7 541 465.3 541 436.2 541C407 541 378 541 349 541C320 541 291 541 262 541C233 541 204 541 174.8 541C145.7 541 116.3 541 87.2 541C58 541 29 541 14.5 541L0 541Z" fill="#df4667"></path><path d="M0 460L14.5 458.2C29 456.3 58 452.7 87.2 450C116.3 447.3 145.7 445.7 174.8 446C204 446.3 233 448.7 262 448.5C291 448.3 320 445.7 349 445.8C378 446 407 449 436.2 447.5C465.3 446 494.7 440 523.8 436.3C553 432.7 582 431.3 611 432C640 432.7 669 435.3 698 436.2C727 437 756 436 785.2 436.7C814.3 437.3 843.7 439.7 872.8 443.2C902 446.7 931 451.3 945.5 453.7L960 456L960 541L945.5 541C931 541 902 541 872.8 541C843.7 541 814.3 541 785.2 541C756 541 727 541 698 541C669 541 640 541 611 541C582 541 553 541 523.8 541C494.7 541 465.3 541 436.2 541C407 541 378 541 349 541C320 541 291 541 262 541C233 541 204 541 174.8 541C145.7 541 116.3 541 87.2 541C58 541 29 541 14.5 541L0 541Z" fill="#e75167"></path><path d="M0 473L14.5 471.2C29 469.3 58 465.7 87.2 466.2C116.3 466.7 145.7 471.3 174.8 469.7C204 468 233 460 262 458.5C291 457 320 462 349 467.8C378 473.7 407 480.3 436.2 478C465.3 475.7 494.7 464.3 523.8 460.8C553 457.3 582 461.7 611 463.3C640 465 669 464 698 465.7C727 467.3 756 471.7 785.2 475.3C814.3 479 843.7 482 872.8 479.7C902 477.3 931 469.7 945.5 465.8L960 462L960 541L945.5 541C931 541 902 541 872.8 541C843.7 541 814.3 541 785.2 541C756 541 727 541 698 541C669 541 640 541 611 541C582 541 553 541 523.8 541C494.7 541 465.3 541 436.2 541C407 541 378 541 349 541C320 541 291 541 262 541C233 541 204 541 174.8 541C145.7 541 116.3 541 87.2 541C58 541 29 541 14.5 541L0 541Z" fill="#ee5c67"></path><path d="M0 509L14.5 505C29 501 58 493 87.2 492.7C116.3 492.3 145.7 499.7 174.8 499.5C204 499.3 233 491.7 262 490.2C291 488.7 320 493.3 349 492.2C378 491 407 484 436.2 484.3C465.3 484.7 494.7 492.3 523.8 492.8C553 493.3 582 486.7 611 487.7C640 488.7 669 497.3 698 497.2C727 497 756 488 785.2 484.5C814.3 481 843.7 483 872.8 487.5C902 492 931 499 945.5 502.5L960 506L960 541L945.5 541C931 541 902 541 872.8 541C843.7 541 814.3 541 785.2 541C756 541 727 541 698 541C669 541 640 541 611 541C582 541 553 541 523.8 541C494.7 541 465.3 541 436.2 541C407 541 378 541 349 541C320 541 291 541 262 541C233 541 204 541 174.8 541C145.7 541 116.3 541 87.2 541C58 541 29 541 14.5 541L0 541Z" fill="#f46767"></path><path d="M0 504L14.5 504.3C29 504.7 58 505.3 87.2 504.7C116.3 504 145.7 502 174.8 503.7C204 505.3 233 510.7 262 511.3C291 512 320 508 349 507C378 506 407 508 436.2 508C465.3 508 494.7 506 523.8 505.3C553 504.7 582 505.3 611 507.2C640 509 669 512 698 516C727 520 756 525 785.2 523.8C814.3 522.7 843.7 515.3 872.8 512.8C902 510.3 931 512.7 945.5 513.8L960 515L960 541L945.5 541C931 541 902 541 872.8 541C843.7 541 814.3 541 785.2 541C756 541 727 541 698 541C669 541 640 541 611 541C582 541 553 541 523.8 541C494.7 541 465.3 541 436.2 541C407 541 378 541 349 541C320 541 291 541 262 541C233 541 204 541 174.8 541C145.7 541 116.3 541 87.2 541C58 541 29 541 14.5 541L0 541Z" fill="#fa7268"></path></svg>